<?xml version="1.0" encoding="UTF-8" standalone="no"?>
<!-- Created with Inkscape (http://www.inkscape.org/) -->

<svg
   width="295.14258mm"
   height="48.037968mm"
   viewBox="0 0 295.14258 48.037968"
   version="1.1"
   id="svg1"
   xml:space="preserve"
   inkscape:version="1.4.4 (dcaf3e7, 2026-05-05)"
   sodipodi:docname="cordierite-logo.svg"
   xmlns:inkscape="http://www.inkscape.org/namespaces/inkscape"
   xmlns:sodipodi="http://sodipodi.sourceforge.net/DTD/sodipodi-0.dtd"
   xmlns="http://www.w3.org/2000/svg"
   xmlns:svg="http://www.w3.org/2000/svg"><sodipodi:namedview
     id="namedview1"
     pagecolor="#ffffff"
     bordercolor="#000000"
     borderopacity="0.25"
     inkscape:showpageshadow="2"
     inkscape:pageopacity="0.0"
     inkscape:pagecheckerboard="0"
     inkscape:deskcolor="#d1d1d1"
     inkscape:document-units="mm"
     inkscape:zoom="0.89887065"
     inkscape:cx="569.60365"
     inkscape:cy="181.33866"
     inkscape:window-width="1720"
     inkscape:window-height="1289"
     inkscape:window-x="0"
     inkscape:window-y="30"
     inkscape:window-maximized="0"
     inkscape:current-layer="layer1" /><defs
     id="defs1" /><g
     inkscape:label="Layer 1"
     inkscape:groupmode="layer"
     id="layer1"
     transform="translate(45.769535,-123.9983)"><path
       style="fill:#000000"
       d="m 16.671998,171.95638 c -2.017061,-0.32327 -4.15071,-1.00896 -6.193942,-1.99054 -2.909763,-1.39786 -6.320409,-4.69808 -7.745939,-7.49513 -1.688594,-3.31322 -1.93389296,-4.37002 -1.93453796,-8.33438 -6.29e-4,-3.86822 0.24675796,-4.99882 1.75531996,-8.02208 2.359084,-4.72775 6.970114,-8.314 12.321816,-9.58333 2.852615,-0.6766 7.441306,-0.44628 10.26395,0.51516 5.892044,2.00694 10.390817,6.84558 11.953839,12.85692 0.931631,3.58302 0.439768,8.2401 -1.243521,11.77396 -2.221822,4.66444 -6.878909,8.45771 -12.033235,9.80125 -1.639047,0.42724 -5.746214,0.70216 -7.14375,0.47817 z m 6.832497,-6.00068 c 2.253415,-0.81794 4.158951,-2.05823 5.502305,-3.58136 6.672234,-7.56518 2.094659,-19.24315 -8.12109,-20.71791 -5.527843,-0.79801 -11.043197,2.08512 -13.500628,7.05739 -0.901186,1.82343 -0.997538,2.23389 -1.108137,4.72067 -0.151004,3.39529 0.301962,5.17108 1.938369,7.59911 1.352632,2.00698 2.646298,3.12543 4.919749,4.2534 3.332356,1.65336 7.004362,1.89016 10.369432,0.6687 z m -11.103666,-9.70047 c -0.882809,-0.35626 -1.417372,-1.33497 -1.417372,-2.595 0,-0.9206 0.155406,-1.30751 0.773397,-1.9255 0.827028,-0.82703 1.461739,-0.94918 2.492269,-0.47964 0.809374,0.36878 1.23225,1.27699 1.23225,2.6465 0,1.39397 -0.334786,1.9673 -1.356813,2.32358 -0.962561,0.33555 -0.966544,0.33562 -1.723731,0.0301 z m 11.679502,-0.0572 c -0.893974,-0.51269 -1.173449,-1.08307 -1.18221,-2.41276 -0.007,-1.0649 0.120102,-1.40564 0.764983,-2.05052 0.466241,-0.46624 1.052263,-0.7734 1.475561,-0.7734 0.423297,0 1.00932,0.30716 1.475561,0.7734 2.031878,2.03188 -0.130872,5.84142 -2.533895,4.46328 z m -50.577333,15.02761 c -4.911682,-0.93855 -8.490529,-2.78095 -12.092271,-6.22514 -3.235228,-3.0937 -5.396087,-6.71888 -6.554647,-10.99644 -0.782512,-2.88914 -0.841706,-8.6521 -0.116859,-11.37708 1.239665,-4.66038 3.526298,-8.53991 6.939686,-11.77396 3.388775,-3.21073 7.298585,-5.15151 12.049093,-5.98102 6.644525,-1.16024 14.264467,1.08427 18.9145607,5.57142 1.7456236,1.68446 1.9367293,1.96918 1.9367293,2.88548 0,1.45527 -1.3707013,2.81579 -2.836861,2.81579 -0.8881602,0 -1.3018386,-0.22871 -2.870729,-1.58714 -3.354602,-2.90458 -7.137514,-4.3302 -11.490326,-4.3302 -4.893644,0 -8.62702,1.56776 -12.2022,5.12408 -1.86142,1.8516 -2.476747,2.67961 -3.349561,4.50734 -3.750115,7.85296 -1.868355,16.9662 4.569255,22.1286 5.514207,4.42191 12.895979,5.26263 19.098338,2.17513 1.242251,-0.61839 2.649847,-1.57293 3.307292,-2.24279 0.629521,-0.64142 1.5315369,-1.29508 2.0044796,-1.45259 1.7933867,-0.59728 3.505729,0.66937 3.505729,2.59325 0,2.35986 -5.7379946,6.41616 -10.9802076,7.76212 -2.731112,0.70122 -7.292718,0.88828 -9.831501,0.40315 z m 105.875249,-0.6957 c -0.873125,-0.11444 -2.420937,-0.52062 -3.439583,-0.90262 -7.857981,-2.94686 -12.275005,-11.42587 -10.192955,-19.56661 0.765141,-2.99167 1.944185,-5.00426 4.370976,-7.46111 3.313295,-3.35434 6.932564,-4.86741 11.642812,-4.86741 3.761826,0 7.166513,1.15777 9.855726,3.35147 l 1.12448,0.91729 v -7.69913 c 0,-8.50132 0.10383,-9.16385 1.55352,-9.91352 1.0623,-0.54933 1.83978,-0.52136 2.86384,0.10306 0.55713,0.3397 0.94677,0.85822 1.14246,1.52036 0.20911,0.70752 0.27079,5.4673 0.20845,16.08609 l -0.0885,15.08125 -0.71394,2.11667 c -2.09277,6.20458 -7.05919,10.32321 -13.534137,11.22379 -2.25289,0.31335 -2.478063,0.31384 -4.793109,0.0104 z m 5.361515,-5.65813 c 3.021323,-0.8043 5.655501,-3.0232 7.027761,-5.91985 0.78511,-1.65728 0.83989,-1.96271 0.83989,-4.68332 0,-2.72707 -0.0535,-3.02331 -0.84895,-4.70265 -3.258065,-6.87825 -11.914851,-8.53826 -17.41233,-3.33898 -6.021108,5.69451 -3.801265,15.72657 4.073889,18.41098 2.030714,0.69221 4.284544,0.7756 6.31974,0.23382 z m -37.934867,5.4094 c -0.307322,-0.12417 -0.813338,-0.5494 -1.124479,-0.94495 -0.554135,-0.70447 -0.565578,-0.91199 -0.559242,-10.14236 0.0038,-5.53537 0.119603,-9.9144 0.280682,-10.6138 0.785025,-3.40855 3.550072,-6.92373 6.644506,-8.44712 1.655034,-0.81477 4.926125,-1.57991 6.826677,-1.59682 2.14714,-0.0191 3.502058,1.85622 2.829574,3.91639 -0.417246,1.27825 -1.633488,1.89239 -3.755615,1.89639 -2.857718,0.005 -5.270631,1.61654 -6.534885,4.36345 -0.590008,1.28195 -0.612963,1.61463 -0.741157,10.74177 -0.14495,10.32009 -0.09654,10.02784 -1.777439,10.73047 -0.96289,0.40249 -1.293641,0.41779 -2.088622,0.0966 z m 62.439065,-0.11771 c -1.75849,-0.77208 -1.68759,-0.11212 -1.68759,-15.7095 v -14.11669 l 0.7734,-0.77339 c 1.09743,-1.09744 2.82364,-1.09804 4.05107,-0.001 l 0.86407,0.77198 0.062,13.58166 c 0.0394,8.63107 -0.0357,13.88092 -0.20611,14.40265 -0.55242,1.69143 -2.30106,2.52779 -3.85685,1.8447 z m 23.24065,-0.006 c -5.61239,-1.35895 -10.36501,-6.26952 -11.56932,-11.95382 -1.22681,-5.79054 0.28929,-11.09746 4.33942,-15.18958 3.12951,-3.16197 6.67292,-4.62015 11.14124,-4.58486 8.16904,0.0645 14.81388,6.62641 14.92149,14.73518 0.0268,2.01787 0.006,2.08994 -0.8366,2.84427 l -0.86407,0.77394 h -11.5052 -11.5052 v 0.61919 c 0,0.34056 0.35935,1.33832 0.79855,2.21725 2.80431,5.61193 9.9439,7.34377 15.49177,3.75783 2.08269,-1.34617 3.36022,-1.41252 4.4901,-0.23318 0.59502,0.62107 0.77109,1.05211 0.77109,1.88767 0,0.93542 -0.14821,1.21435 -1.08876,2.04901 -1.37499,1.2202 -4.10256,2.55855 -6.2428,3.06317 -2.00253,0.47216 -6.41881,0.47953 -8.34171,0.0139 z m 12.90136,-19.12956 c -0.0113,-0.89875 -1.03736,-2.71852 -2.29421,-4.06881 -2.95444,-3.17407 -7.50526,-3.94556 -11.4673,-1.94403 -2.13369,1.07789 -4.40246,3.74138 -4.89638,5.74826 l -0.17908,0.7276 h 9.42139 c 8.79858,0 9.42101,-0.0306 9.41558,-0.46302 z m 15.17355,19.32896 c -0.84129,-0.16387 -1.90214,-1.33705 -2.08358,-2.30421 -0.0868,-0.4628 -0.11584,-4.88454 -0.0645,-9.82607 0.0933,-8.97198 0.0944,-8.98718 0.79247,-10.80475 2.051,-5.33997 6.67707,-8.63091 12.13244,-8.63091 2.22844,0 3.00615,0.3329 3.57418,1.52993 0.3641,0.76729 0.38805,1.10118 0.13867,1.93352 -0.43324,1.44606 -1.37718,2.0928 -3.05447,2.0928 -2.34458,0 -4.02105,0.66588 -5.55067,2.20468 -2.19407,2.20724 -2.26688,2.62225 -2.26688,12.92009 0,9.7107 -0.0451,9.98941 -1.72887,10.69295 -0.49498,0.20681 -0.99309,0.35981 -1.1069,0.34 -0.11382,-0.0198 -0.46567,-0.0864 -0.78191,-0.14803 z m 22.40678,-0.27937 c -0.5073,-0.25444 -1.07109,-0.76027 -1.25287,-1.12407 -0.25137,-0.50307 -0.33145,-3.94334 -0.33441,-14.36679 -0.003,-11.7121 0.0542,-13.81771 0.39571,-14.47809 0.5148,-0.9955 1.14606,-1.31902 2.55956,-1.31174 1.2079,0.006 2.05653,0.50165 2.56611,1.49808 0.20648,0.40375 0.29525,4.70963 0.29456,14.2875 -9.5e-4,13.1119 -0.0234,13.74636 -0.5154,14.55324 -0.34566,0.5669 -0.84442,0.9353 -1.52037,1.123 -1.26334,0.35082 -1.10642,0.36379 -2.19289,-0.18113 z m 26.45465,0.1897 c -4.95861,-0.88077 -8.73565,-4.5421 -9.76178,-9.46273 -0.17375,-0.83321 -0.29239,-4.45631 -0.29239,-8.92969 v -7.5276 h -2.1298 c -2.39562,0 -3.41702,-0.37878 -3.9041,-1.44782 -0.57038,-1.25183 -0.39187,-2.23349 0.58349,-3.20885 0.88243,-0.88243 0.9426,-0.89958 3.15637,-0.89958 h 2.25679 l 0.0848,-4.12339 0.0848,-4.12339 0.86407,-0.7714 c 0.98514,-0.87949 2.03825,-0.99441 3.27096,-0.35695 1.26543,0.65437 1.55352,1.72898 1.55352,5.79476 v 3.58037 h 3.69999 3.69999 l 0.86407,0.77205 c 0.74184,0.66283 0.86407,0.9466 0.86407,2.00608 0,1.05947 -0.12223,1.34324 -0.86407,2.00607 l -0.86407,0.77205 h -3.69999 -3.69999 v 7.57607 c 0,5.04155 0.10409,7.92351 0.31115,8.61462 0.41575,1.38764 2.07748,3.22811 3.38809,3.75251 0.58413,0.23372 1.74613,0.50535 2.58221,0.60362 1.9299,0.22682 2.97896,1.14138 2.97896,2.59701 0,2.52946 -1.56146,3.39178 -5.02708,2.77619 z m 20.71211,-0.13297 c -4.22156,-1.13711 -8.40331,-4.55919 -10.23248,-8.37361 -2.96545,-6.18394 -2.03841,-13.28528 2.37032,-18.15708 1.86544,-2.06138 3.92327,-3.40355 6.71753,-4.38134 4.36661,-1.52801 9.83059,-0.88246 13.50544,1.59563 2.31974,1.5643 4.15326,3.65624 5.28724,6.03247 1.16461,2.44042 1.59192,4.21826 1.59192,6.62327 0,1.40699 -0.10753,1.81707 -0.63837,2.43438 l -0.63838,0.74235 -11.92933,0.074 c -13.62205,0.0845 -12.48236,-0.18553 -11.14539,2.64058 0.97888,2.06917 2.85217,3.96777 4.91037,4.97672 1.44386,0.70779 1.82388,0.77538 4.35985,0.77538 3.20136,0 4.76473,-0.42952 6.7809,-1.86296 0.96537,-0.68635 1.5589,-0.91516 2.37389,-0.91516 2.85239,0 3.66885,3.47031 1.20074,5.10363 -1.8036,1.19356 -4.23614,2.30284 -5.92104,2.7001 -2.0807,0.49057 -6.7578,0.48603 -8.59321,-0.008 z m 13.17137,-19.37844 c -0.94245,-3.28611 -3.46136,-5.68176 -6.90047,-6.56283 -4.53218,-1.16109 -9.35815,1.0927 -11.3711,5.31046 -0.43738,0.91646 -0.79524,1.73856 -0.79524,1.8269 0,0.0883 4.33747,0.16061 9.63882,0.16061 h 9.63882 z M 109.26622,132.9555 c -2.19706,-0.6463 -3.22783,-3.61145 -1.92658,-5.54208 1.67554,-2.48596 5.00303,-2.33822 6.38272,0.28339 0.56102,1.06602 0.47794,2.80048 -0.18243,3.80833 -0.7852,1.19837 -2.80275,1.88306 -4.27371,1.45036 z m 73.82869,-0.11636 c -2.82487,-1.00896 -3.30714,-4.79556 -0.8405,-6.59927 1.01721,-0.74382 3.21109,-0.75276 4.1916,-0.0171 1.62565,1.21973 2.16109,3.67708 1.10842,5.08701 -1.2048,1.6137 -2.74476,2.14181 -4.45952,1.52934 z"
       id="path1" /></g></svg>
